<?xml version="1.0" encoding="UTF-8" standalone="no"?>
<svg xmlns:dc="http://purl.org/dc/elements/1.1/" xmlns:cc="http://creativecommons.org/ns#" xmlns:rdf="http://www.w3.org/1999/02/22-rdf-syntax-ns#" xmlns:svg="http://www.w3.org/2000/svg" xmlns="http://www.w3.org/2000/svg" xmlns:sodipodi="http://sodipodi.sourceforge.net/DTD/sodipodi-0.dtd" xmlns:inkscape="http://www.inkscape.org/namespaces/inkscape" width="740.61627" height="480.33203" id="svg8775" version="1.1">
  <defs id="defs8777"/>
  
  <metadata id="metadata8780">
    
  </metadata>
  <g id="layer1" transform="translate(-4.5544601,-570.74277)">
    <path style="fill:#ffffff" d="m 259.86955,1050.203 c -22.57395,-4.8537 -37.22001,-22.0066 -42.89343,-50.23509 -4.41191,-21.95194 -2.73138,-49.10398 4.14414,-66.95581 5.80003,-15.05939 14.38527,-25.15135 26.42243,-31.05969 8.03683,-3.94475 15.31985,-5.52878 25.39791,-5.52392 33.75743,0.0162 53.80083,22.25846 57.80915,64.15084 0.67911,7.09725 0.27383,26.60751 -0.68384,32.92373 -4.70374,31.02264 -18.77764,50.09494 -41.42795,56.14114 -4.05194,1.0817 -5.48106,1.2148 -14.4569,1.3473 -8.61586,0.1273 -10.54777,0.021 -14.31151,-0.7885 z m 17.49246,-15.7408 c 16.19502,-2.0306 25.15575,-14.345 28.64014,-39.35866 1.1599,-8.32674 1.15545,-33.88591 -0.008,-42.15807 -2.41761,-17.19907 -6.32288,-26.92778 -13.57417,-33.8158 -5.34468,-5.07691 -11.43375,-7.39973 -19.39778,-7.39973 -19.39408,0 -30.24932,14.42429 -33.42198,44.41052 -0.92243,8.71839 -0.64126,32.54235 0.46921,39.76 3.66358,23.81164 13.02342,36.56394 28.30343,38.56164 4.07284,0.5325 4.74278,0.5325 8.98848,10e-5 z m 322.27041,15.9754 c -30.49805,-5.6529 -47.59192,-25.9839 -52.17145,-62.05156 -0.87893,-6.92213 -0.74406,-24.62585 0.24294,-31.89238 4.23096,-31.14998 18.82698,-51.06719 42.43446,-57.90459 12.01288,-3.47924 29.04504,-2.65716 40.25192,1.94279 17.7076,7.26825 28.39656,23.24135 32.03545,47.8724 1.0679,7.22858 1.75892,21.2191 1.04803,21.2191 -0.25736,0 -6.2837,0.84233 -13.39192,1.87186 -44.71787,6.47679 -80.00175,11.56315 -80.21296,11.56315 -0.42663,0 0.35376,6.99958 1.30551,11.70855 2.8712,14.20648 8.55893,24.54858 17.02553,30.95798 8.57546,6.4918 19.55914,9.0647 33.79686,7.9169 10.62992,-0.8571 18.55985,-2.7744 26.47941,-6.4023 1.89353,-0.8675 3.5994,-1.4169 3.79082,-1.2211 0.19142,0.1959 1.64042,3.6702 3.21995,7.7205 l 2.8719,7.3644 -1.10338,0.8422 c -3.15858,2.4106 -13.96023,5.9936 -23.80392,7.8958 -6.78018,1.3104 -27.95282,1.6836 -33.81915,0.5963 z m -6.4577,-83.83633 c 12.72462,-1.91698 27.93055,-4.20692 33.79099,-5.08876 5.86043,-0.88189 11.36434,-1.72625 12.2309,-1.87641 l 1.57559,-0.27305 -0.28819,-5.87263 c -0.96876,-19.74024 -7.13422,-32.48778 -18.3827,-38.00771 -4.98096,-2.44429 -9.01874,-3.28737 -15.79308,-3.2975 -19.58494,-0.0292 -31.77924,12.62648 -36.14905,37.51729 -1.24589,7.0966 -1.76466,20.38413 -0.79586,20.38413 0.37168,0 11.08683,-1.56842 23.8114,-3.48536 z M 382.24898,1049.772 c -4.90359,-0.6917 -8.53373,-1.7807 -12.63307,-3.7898 -5.54578,-2.718 -11.04941,-8.2353 -13.78255,-13.8167 -2.40792,-4.9172 -3.69991,-9.6137 -4.27665,-15.5455 -0.25558,-2.6287 -0.45308,-25.64439 -0.45988,-53.59832 l -0.012,-48.99144 h -8.57061 -8.5706 v -7.41241 -7.41241 h 8.5706 8.57061 v -17.28205 -17.28205 l 12.16099,-3.70417 12.16099,-3.70421 0.12051,20.98626 0.12049,20.98622 h 12.96704 12.96706 v 7.41241 7.41241 h -12.97173 -12.97173 l 0.007,51.07618 c 0.008,54.81078 -0.0302,53.87098 2.34491,58.92348 1.56036,3.3195 4.31315,6.0845 7.73467,7.7689 2.89659,1.4261 3.39174,1.5206 7.96714,1.5227 2.6832,0 5.56126,-0.1718 6.39563,-0.3846 l 1.51704,-0.3867 -0.12722,7.7884 -0.12721,7.7884 -3.47457,0.8203 c -4.18663,0.9886 -11.66683,1.3832 -15.62677,0.8247 z M 4.5544601,977.8144 v -71.02914 l 3.3587553,-1.46965 c 13.4881236,-5.90204 25.1896086,-8.28212 43.0177386,-8.7499 12.073362,-0.31679 18.343548,0.20509 26.197864,2.18055 8.997901,2.26311 16.206543,6.24673 22.165569,12.24911 l 3.242933,3.26651 1.85311,-1.78124 c 7.47371,-7.18398 17.43748,-12.23485 29.0991,-14.75099 6.48541,-1.39927 22.57262,-1.52728 28.4843,-0.22668 16.93213,3.72529 27.86173,12.82524 32.80225,27.31104 2.53587,7.43535 2.50117,6.49809 2.50117,67.57056 v 56.45883 h -12.03289 -12.0329 l -0.14472,-57.09862 c -0.15891,-62.69077 -0.008,-59.29927 -2.92847,-65.47428 -4.57146,-9.66328 -14.8421,-14.69154 -28.45413,-13.93042 -10.51905,0.58817 -18.75948,4.07632 -26.29091,11.1289 l -2.43219,2.27756 v 61.54853 61.54833 H 100.91586 88.870694 l -0.0077,-56.17206 c -0.0088,-62.15463 0.104664,-59.6616 -3.005702,-65.98273 -3.078153,-6.25566 -9.072762,-10.87146 -17.15963,-13.21281 -3.401381,-0.98479 -4.524191,-1.06434 -14.572331,-1.03241 -10.188282,0.0325 -11.169434,0.11114 -15.288103,1.22722 -2.420614,0.65594 -5.599844,1.6456 -7.064962,2.19926 l -2.663808,1.0066 v 65.98356 65.98337 H 16.831637 4.5548273 v -71.029 z M 421.03954,943.67991 V 838.51627 h 12.04517 12.04518 v 34.05078 c 0,23.02107 0.15436,34.05078 0.47648,34.05078 0.26208,0 1.66927,-0.59953 3.12711,-1.33229 4.23675,-2.12954 11.50495,-4.69493 17.01219,-6.0047 4.66876,-1.11034 5.91172,-1.21077 14.82483,-1.19799 8.12831,0.0116 10.45285,0.17359 14.12992,0.98409 16.93579,3.73303 27.362,12.35789 32.24451,26.67363 2.53445,7.43117 2.50118,6.53876 2.50118,67.10728 v 55.99555 h -12.03113 -12.03114 l -0.13862,-56.63534 c -0.15435,-63.08303 0.0856,-58.42095 -3.37181,-65.50402 -1.94368,-3.98181 -5.55278,-7.75857 -9.34645,-9.78059 -4.61646,-2.46055 -8.84204,-3.40907 -16.35758,-3.67178 -10.67022,-0.37303 -19.50322,1.4002 -27.4491,5.51047 l -3.59039,1.85723 v 64.11207 64.11196 h -12.04518 -12.04517 z m 259.89782,34.25605 v -70.90757 l 3.5904,-1.64302 c 8.05576,-3.68651 16.02212,-6.00354 25.13272,-7.31002 6.78277,-0.97265 20.72483,-1.72895 28.75794,-1.55999 l 6.75229,0.14204 -2.81444,8.89203 c -1.54799,4.89061 -2.92763,8.9995 -3.06587,9.13079 -0.13824,0.13134 -1.49332,-0.11146 -3.0113,-0.53958 -2.10934,-0.59489 -4.72554,-0.78154 -11.09888,-0.79183 -9.24254,-0.0149 -11.99135,0.46842 -17.25703,3.0346 l -2.89547,1.4111 v 65.52454 65.52435 H 692.98255 680.93736 Z M 473.93398,872.21959 c 3.55365,-8.47216 6.93292,-16.55053 7.50951,-17.95194 l 1.0484,-2.54802 -14.93709,-44.82195 -14.93707,-44.82194 7.72216,0.005 7.72216,0.005 9.64271,33.69818 c 5.30354,18.53401 9.96123,35.57446 10.35052,37.86767 0.38924,2.29321 0.7694,4.233 0.84483,4.31055 0.0754,0.0776 0.37747,-1.27749 0.67134,-3.01129 0.29385,-1.73377 0.95346,-4.71592 1.4658,-6.62693 0.7965,-2.9709 14.38704,-48.17473 18.55952,-61.73151 l 1.39025,-4.51694 h 6.73108 c 5.18962,0 6.68234,0.13262 6.51811,0.57909 -0.39268,1.06765 -8.07444,24.391 -19.11125,58.02531 -6.02,18.34573 -13.45154,40.91305 -16.51454,50.14962 l -5.56904,16.79376 h -7.78428 -7.78424 l 6.46112,-15.40393 z m -154.3238,-19.38203 c -7.217,-0.93397 -14.76808,-4.32936 -19.72073,-8.86756 -5.94772,-5.44998 -9.78031,-12.70516 -12.05823,-22.82658 -1.00934,-4.48451 -1.42217,-18.833 -0.70571,-24.52523 2.38619,-18.95736 11.68015,-31.38482 26.43401,-35.34626 4.22864,-1.1354 14.29919,-1.09536 18.76267,0.0746 13.71927,3.59607 21.66881,14.33796 23.8444,32.21983 0.67625,5.55844 0.62765,10.66781 -0.10147,10.66614 -0.97918,-0.004 -55.69772,7.96362 -55.8796,8.13489 -0.0939,0.0884 0.18684,2.29887 0.6238,4.91221 1.46743,8.77584 4.13979,14.43638 9.00748,19.07933 4.66277,4.44754 10.05128,6.32682 18.14096,6.32682 6.29906,0 11.87792,-0.97871 17.42797,-3.05749 2.41644,-0.90505 4.45778,-1.57758 4.5363,-1.49457 0.47709,0.50442 3.4364,8.87938 3.24627,9.18705 -0.12758,0.20639 -1.78324,1.0211 -3.67929,1.81043 -8.19252,3.41055 -20.43232,4.92884 -29.87879,3.7064 z m 2.48798,-51.62571 c 10.93891,-1.65033 20.09088,-3.00059 20.33772,-3.00059 0.65906,0 0.0357,-9.41383 -0.8439,-12.74008 -1.00962,-3.81893 -3.04341,-7.97156 -5.0075,-10.22458 -3.34097,-3.83236 -9.89275,-6.13932 -15.9852,-5.62855 -12.56845,1.05369 -19.88186,11.5503 -20.81138,29.86944 l -0.26458,5.21404 1.343,-0.24452 c 0.7386,-0.13454 10.29297,-1.59483 21.23184,-3.24516 z m 233.05977,51.46751 c -12.5538,-2.48576 -20.81814,-10.29914 -25.2037,-23.82842 -3.5302,-10.89065 -4.03277,-27.03137 -1.22976,-39.49504 3.39984,-15.11755 11.58389,-24.73089 23.88544,-28.05695 4.14516,-1.12075 14.32667,-1.13006 18.53105,-0.017 9.95088,2.63452 17.56449,9.89473 21.75603,20.74616 2.43007,6.2912 3.31594,11.71908 3.58951,21.99356 0.43571,16.36194 -1.83003,26.44082 -8.0428,35.77806 -4.12412,6.19822 -10.12874,10.44132 -17.53438,12.39059 -3.9221,1.03233 -11.77587,1.27615 -15.75139,0.48894 z m 14.65671,-11.04923 c 8.58432,-4.19997 12.44035,-15.02724 12.44364,-34.94036 0.004,-20.29424 -4.0703,-31.60427 -12.86837,-35.72789 -2.34724,-1.10014 -3.20596,-1.24208 -7.51448,-1.24208 -4.26232,0 -5.17989,0.148 -7.41353,1.19585 -6.73084,3.15761 -10.95143,11.0715 -12.45707,23.35777 -0.28102,2.29321 -0.5103,8.02625 -0.50951,12.74008 0,12.11671 1.22689,19.55419 4.22392,25.64784 2.50905,5.1015 4.8832,7.42692 9.62052,9.42298 2.25477,0.95004 3.21037,1.07633 7.23638,0.9562 3.9484,-0.1178 5.02543,-0.32767 7.2385,-1.41039 z m 59.93072,11.05497 c -11.29286,-2.21164 -17.67782,-7.42413 -20.95508,-17.10721 l -1.27907,-3.77913 -0.13661,-34.86151 -0.13657,-34.86151 h 7.18295 7.18296 l 0.13286,33.93496 0.13287,33.93496 1.04061,2.57021 c 1.96656,4.85708 5.05776,7.98873 9.47362,9.59755 2.6213,0.95499 11.05275,1.28679 15.06407,0.5928 1.72965,-0.29922 4.34355,-1.08016 5.80866,-1.73538 l 2.66384,-1.19126 v -38.85195 -38.85189 h 7.41241 7.41241 v 42.17747 42.17752 l -2.89546,1.29653 c -4.07772,1.8259 -8.42783,3.21518 -13.42241,4.2866 -5.67116,1.21661 -19.91889,1.60409 -24.68206,0.67124 z m -240.20859,-0.56228 c -6.97082,-1.33734 -12.31095,-5.29746 -15.10358,-11.20057 -2.33194,-4.92931 -2.46722,-7.0974 -2.48473,-39.81552 l -0.0162,-30.22874 h -5.09604 -5.09603 v -4.40113 -4.40112 h 5.09603 5.09604 v -10.39797 -10.39796 l 5.44349,-1.67146 c 2.99392,-0.91929 6.32951,-1.96059 7.41242,-2.314 l 1.96891,-0.64255 v 12.71197 12.71197 h 7.64407 7.64405 v 4.40112 4.40113 h -7.65629 -7.65624 l 0.12801,32.08184 c 0.12707,31.83684 0.13569,32.09605 1.12534,33.93498 2.17207,4.036 5.01103,5.56769 10.23715,5.52316 l 3.82203,-0.0325 v 4.33112 c 0,4.29295 -0.0111,4.33557 -1.27402,4.83869 -1.35429,0.53958 -9.29053,0.94049 -11.23444,0.56761 z M 160.67846,808.91525 v -42.57278 l 4.05366,-1.61295 c 10.67962,-4.24939 27.50687,-5.72881 38.10445,-3.35007 5.01395,1.12542 10.49218,3.88982 13.67721,6.90169 l 2.67389,2.52854 2.82723,-2.3045 c 3.5341,-2.88061 9.11453,-5.66899 13.9459,-6.96832 4.98458,-1.34052 16.07053,-1.47789 20.61578,-0.25545 7.48251,2.0124 13.56467,6.65389 16.44111,12.54681 3.09746,6.34574 3.01648,5.18479 3.01648,43.24305 V 851.488 h -7.18078 -7.18077 v -33.72182 c 0,-28.90045 -0.10225,-34.11657 -0.71526,-36.48298 -1.68433,-6.50191 -6.19719,-10.2753 -13.53344,-11.31577 -6.95888,-0.98694 -14.77022,1.32973 -19.54598,5.7969 l -2.34085,2.18958 v 36.76703 36.76706 h -7.16674 -7.16679 l -0.1298,-34.86152 -0.12986,-34.86151 -1.21369,-2.58809 c -0.66753,-1.42344 -1.97745,-3.35184 -2.91095,-4.28534 -5.59554,-5.59554 -17.43812,-7.017 -28.65213,-3.43909 l -3.12712,0.99774 v 39.51888 39.51893 h -7.18077 -7.18078 z m 523.96511,0.19082 v -42.38196 l 2.20056,-1.11199 c 6.34582,-3.20665 14.5899,-4.77236 27.53008,-5.22847 l 8.65159,-0.30495 -1.75128,5.51546 c -1.4728,4.63831 -1.8909,5.49755 -2.629,5.40284 -0.48273,-0.062 -2.45924,-0.33838 -4.39227,-0.6143 -4.22818,-0.60356 -9.52532,4.6e-4 -12.95996,1.47815 l -2.28816,0.98434 v 39.32138 39.32143 h -7.18077 -7.18079 z M 158.57792,736.11838 c -5.15538,-0.5155 -9.06913,-1.59096 -13.4552,-3.69739 -15.55565,-7.4707 -24.21344,-24.8275 -25.07055,-50.26035 -0.8168,-24.23762 5.4628,-43.44277 17.45874,-53.39447 3.43556,-2.8501 9.98535,-6.19673 14.24485,-7.27843 6.80433,-1.72796 17.04731,-1.73288 23.82388,-0.0114 3.97305,1.00927 10.69329,4.34659 13.92473,6.91512 8.2388,6.54873 14.01252,17.98248 16.62456,32.9218 1.39085,7.95458 1.53734,24.07042 0.29062,31.96603 -3.03224,19.20353 -10.41338,31.73625 -22.59999,38.37324 -6.88025,3.74708 -16.10607,5.37936 -25.24164,4.46589 z m 8.81804,-12.50574 c 11.36471,-1.59848 18.29333,-10.87656 20.81476,-27.87293 1.58704,-10.6981 1.36259,-28.19528 -0.48917,-38.12859 -2.32361,-12.46463 -7.14252,-20.58003 -14.17417,-23.87054 -9.54469,-4.46649 -20.84112,-1.99652 -26.76729,5.85268 -3.87827,5.13669 -6.22342,11.65917 -7.72615,21.48832 -1.17032,7.65498 -1.1569,26.91445 0.0237,34.03692 2.96284,17.87364 9.34692,26.52326 21.02787,28.49013 3.07638,0.51803 3.63366,0.51833 7.29038,0.004 z M 25.865149,652.51098 v -81.76821 h 9.03389 9.033878 v 28.49148 c 0,19.29658 0.154477,28.49147 0.478673,28.49147 0.26328,0 1.462004,-0.49756 2.663842,-1.10568 3.504791,-1.77341 9.944736,-3.89497 14.334624,-4.72237 5.65239,-1.06535 16.367738,-0.69989 21.901328,0.74698 7.625165,1.99376 13.561466,5.66825 17.394006,10.76667 3.54953,4.72192 5.41051,9.39875 6.21745,15.62509 0.26087,2.01295 0.45632,20.67294 0.46457,44.35867 l 0.0144,40.88411 h -9.013412 -9.01343 l -0.152099,-42.27394 c -0.13766,-38.26309 -0.227302,-42.52801 -0.9448,-44.95189 -1.157771,-3.91128 -2.460499,-6.21032 -4.903081,-8.6529 -4.120716,-4.12072 -9.453968,-5.77931 -18.362925,-5.71065 -6.777398,0.0522 -12.370572,1.25509 -17.372849,3.73623 l -3.474569,1.72339 -0.11797,48.06487 -0.117982,48.06489 H 34.896972 25.86525 v -81.76821 z m 206.907111,54.32961 c -4.28544,-15.10278 -11.41901,-40.22605 -15.85238,-55.82946 -4.43341,-15.60343 -8.06072,-28.47671 -8.06072,-28.6073 0,-0.13059 4.16948,-0.23743 9.26552,-0.23743 5.09603,0 9.26551,0.11441 9.26551,0.25425 0,0.13984 1.78454,7.5928 3.96561,16.56212 16.46283,67.70124 16.54876,68.06531 17.3424,73.50299 0.27736,1.90031 0.58975,3.54058 0.69422,3.64505 0.20737,0.20737 0.22853,0.11734 1.5611,-6.63689 0.65035,-3.29633 20.58771,-75.24884 23.97295,-86.51678 0.21946,-0.73044 1.01722,-0.81074 8.05522,-0.81074 h 7.81157 l 0.70497,2.4322 c 0.38771,1.33771 3.09839,11.18811 6.02374,21.88979 2.92536,10.70168 7.71934,28.21775 10.65335,38.9246 4.37185,15.95384 7.23731,28.0073 7.23731,30.44352 0,0.22528 0.20847,0.28075 0.46327,0.12327 0.25481,-0.15747 0.46328,-0.87213 0.46328,-1.58812 0,-3.07189 1.83897,-11.16043 8.53906,-37.5587 3.91254,-15.41551 8.63082,-34.02182 10.485,-41.34737 l 3.37125,-13.31919 h 8.218 8.21802 l -0.59758,2.20057 c -0.32866,1.21031 -7.50216,26.32979 -15.9411,55.82107 -8.4389,29.49128 -15.34352,53.73132 -15.34352,53.86676 0,0.13545 -3.57362,0.18922 -7.94142,0.1195 l -7.94143,-0.12675 -8.98612,-31.73441 C 283.19989,648.56606 284.15781,652.1523 282.64229,643.24546 l -0.3941,-2.31638 -0.81602,4.37457 c -0.75449,4.04486 -4.27145,16.57912 -17.23114,61.41061 -2.72531,9.42767 -5.61546,19.43443 -6.42248,22.23725 l -1.46738,5.09604 -7.87361,0.12632 -7.87365,0.12633 z M 423.35592,678.2228 v -56.0564 h 9.03388 9.03388 v 56.0564 56.05639 h -9.03388 -9.03388 z m 5.18688,-78.68628 c -4.14228,-1.46954 -7.03999,-5.24302 -7.03999,-9.16772 0,-2.7237 2.12056,-6.58388 4.53691,-8.25889 1.62577,-1.12695 2.56961,-1.41149 5.16956,-1.5584 4.05964,-0.22938 6.16439,0.4777 8.55828,2.87516 2.8927,2.89701 3.7864,6.88402 2.32649,10.37896 -2.1372,5.11628 -8.13448,7.65257 -13.55125,5.73089 z" id="path8913"/>
  </g>
</svg>
