<?xml version="1.0" encoding="utf-8"?>
<!-- Generator: Adobe Illustrator 24.1.2, SVG Export Plug-In . SVG Version: 6.00 Build 0)  -->
<svg xmlns="http://www.w3.org/2000/svg" xmlns:xlink="http://www.w3.org/1999/xlink" version="1.1" x="0px" y="0px" width="1800px" height="574.7px" viewBox="0 0 1800 574.7" style="enable-background:new 0 0 1800 574.7;" xml:space="preserve">
<style type="text/css">
	.st0{fill:#FFFFFF;}
	.st1{fill:#FFF521;}
</style>
<g>
	<path d="M1766.8,484.7l-15.8-134.2l-72.6-63.2l-3.2-39.5l71.1,64.7l-30-254.2l-47.4-56.8H1500l-15.8,31.6l31.6,44.2l25.3,254.2   l-93.2-83.7L1427.4,1.6h-108.9l-9.5,18.9l-14.2-18.9h-262.1l-11.1,17.4l-12.6-17.4H890.5l-28.4,37.9V1.6L63.2,0l-30,28.4l25.3,39.5   L0,571.6l325.3-25.3l36.3-464.2l23.7,461.1l90-6.3l74.2-378.9l-20.5,377.4l330-7.9l-1.6-44.2l33.2,44.2l126.3,1.6l34.7-48.9   l1.6,47.4l273.2,11.1l33.2-48.9l3.2,50.5l420,34.7L1800,540L1766.8,484.7z M1046.8,330l-93.2-77.4v-47.4l93.2,85.3V330z"/>
	<path class="st0" d="M904.8,491.1l-33.3-42l1.6-394.2l28.3-40.6h93.2l31.6,40.4l3.5,174.9l-58.7-54.6l-1.5-91.2H930   c-0.6,123.9-1,301.3-0.3,334.7h44.5l-1.7-130.5l60.1,50.1l1.7,110.7l-28.2,42.3H904.8z M105.4,528.6l2.9-5.2l-18.1-41.2l54.3-468   H70.1c-1.7,2-2.2,2.5-3.7,4.2l15.6,34.6L24.4,535.9L105.4,528.6z M1744.5,484.2l-15.9-133.8l-66.1-56.1l16.7,150.7l-42.5-1.2   l-14.5-145.1l34.9,1.6l-9.4-79l-34.7-1.6l-14.4-132.9h39.4l10.7,91.6l64.7,56.6l-21.1-179.1l-33-41.7h-141.5l-3.4,6.2l23.7,35.5   l49.3,463.1l182,16.9l2.9-4.6L1744.5,484.2z M1545.6,470l-11.1-122.5l-64.4-58.4l13.5,141.9h-44.1l-33.2-416.8h-73.5l-4,4.6   l22.8,36.9l35,449.2l181.3,11.8l3.3-5.3L1545.6,470z M1342.2,461.2l-26.9,39.4l-132.4-5.1L1160.6,54l-20.2-33.7l3.5-6.1h138.3   l33,45.1l11.4,170.4l-25.9,27.3l30.3,27.4L1342.2,461.2z M1227.7,228.9l38.4-37.2l-7.3-106.5h-38L1227.7,228.9z M1280.2,424.5   l-5.8-102.7l-25-23.7l-16.1,18.4l4.4,106.9L1280.2,424.5z M1135.2,451.2l-15.9-437h-72.6l-4.2,6l20.2,35.3l12.8,438.8h80.3l3-6   L1135.2,451.2z M760.7,14.2l-3.8,5.1l26.1,34.9l-3.9,152.1l-33.4-192h-84.3l-4.7,4.7l17.3,34.6l-12.8,440.9l79.6-1.8l3.6-5.8   l-26.1-38.4l7-225.7l51.4,268.4h56.8l4.9-476.8H760.7z M617.4,454.7L635,14.2h-70.5l-4.7,6.3l16.5,33l-20.8,444.2l80.1-3.7l2.9-4.1   L617.4,454.7z M472.9,14.2l-3.8,5.1l18.5,35.3l-34.1,175.9L443.4,14.2h-79.4l-4.2,5.5l24,36l25.5,447.9h45.9l97.2-489.5H472.9z    M346.4,14.2L302.6,513l-55.7,2l-29.1-280.6l-25.1,239.8l20,39.9c-1.1,2.2-1.5,3-2.5,5l-79.9,7.4l49.6-473.3l-14.7-32.8l4.6-6.2   h83.9L273,211l14.2-157.3l-21.4-32.9l5-6.6H346.4z M332.6,26.8h-47.8l15.4,23.7l-18.1,200.6h-17.8L242.2,26.8h-60.3l10.9,24.2   l-0.2,1.7l-48.1,459.7l51-4.7l-15.6-31.3l0.2-1.8l29-277.2h17.7l31.6,304.5l32.7-1.2L332.6,26.8z"/>
	<path class="st1" d="M74.2,20.5h63.2L83.7,483.2l17.4,39.5l-69.5,6.3L88.4,52.1L74.2,20.5z M172.1,20.5l14.2,31.6l-48.9,467.4   l67.9-6.3l-18.9-37.9l28.4-271.6h6.3l31.6,304.7l44.2-1.6l42.6-486.3h-66.3l20.5,31.6l-17.4,192.6c0,0-6.3,0-6.3,0   S247.9,20.5,247.9,20.5H172.1 M390,53.7l25.3,443.7H450l94.7-476.8h-67.9l17.4,33.2l-39.5,203.7h-6.3L437.4,20.5h-69.5L390,53.7z    M582.6,52.1l-20.5,438.9l67.9-3.2l-18.9-31.6l17.4-435.8h-61.6L582.6,52.1z M680.5,52.1l-12.6,435.8l66.3-1.6L712.1,450l7.9-255.8   h6.3l56.8,290.5h44.2l4.7-464.2h-66.3l23.7,31.6l-4.7,186.3h-6.3L740.5,20.5h-75.8L680.5,52.1z M879.5,56.8l-1.6,390l30,37.9h94.7   l25.3-37.9l-1.6-105.8l-47.4-39.5l1.6,123.2c0,0-55.3,0-56.8,0c-1.6,0,0-347.4,0-347.4h52.1l1.6,94.7l45.8,42.6L1020,56.8   l-28.4-36.3h-86.8L879.5,56.8z M1068.9,53.7l12.6,434.2h69.5l-22.1-34.7l-15.8-432.6H1050L1068.9,53.7z M1335.8,459.5l-23.7,34.7   l-123.2-4.7l-22.1-437.4l-18.9-31.6h131.1l30,41.1l11.1,165.8l-28.4,30l33.2,30L1335.8,459.5z M1222.1,243.2l50.5-48.9l-7.9-115.3   h-50.5L1222.1,243.2z M1286.8,431.1l-6.3-112.1l-31.6-30l-22.1,25.3l4.7,115.3L1286.8,431.1z M1357.9,53.7l34.7,445.3l170.5,11.1   l-23.7-37.9l-11.1-121.6l-50.5-45.8l12.6,132.6h-56.8l-33.2-416.8h-63.2L1357.9,53.7z M1544.2,53.7l48.9,459.5l170.5,15.8   l-25.3-42.6l-15.8-132.6l-52.1-44.2l15.8,142.1l-55.3-1.6l-15.8-157.9l34.7,1.6l-7.9-66.3l-34.7-1.6l-15.8-145.3h52.1l11.1,94.7   l50.5,44.2l-18.9-161.1l-30-37.9h-134.2L1544.2,53.7z"/>
</g>
</svg>